<mxfile host="app.diagrams.net" modified="2024-01-31T19:57:18.342Z" agent="Mozilla/5.0 (Windows NT 10.0; Win64; x64) AppleWebKit/537.36 (KHTML, like Gecko) Chrome/121.0.0.0 Safari/537.36" etag="VgsYr4dmLnbyFvN3sz7e" version="23.1.0" type="device">
  <diagram name="PÃ¡gina-1" id="rdv8JL_-uBRguDZ8fa2v">
    <mxGraphModel dx="2093" dy="975" grid="1" gridSize="10" guides="1" tooltips="1" connect="1" arrows="1" fold="1" page="1" pageScale="1" pageWidth="827" pageHeight="1169" math="0" shadow="0">
      <root>
        <mxCell id="0" />
        <mxCell id="1" parent="0" />
        <mxCell id="c-90zkIYk8aVxUDxAEu_-1" value="" style="endArrow=classic;html=1;rounded=0;exitX=1;exitY=0.5;exitDx=0;exitDy=0;entryX=0.5;entryY=0;entryDx=0;entryDy=0;" parent="1" source="c-90zkIYk8aVxUDxAEu_-5" target="c-90zkIYk8aVxUDxAEu_-6" edge="1">
          <mxGeometry width="50" height="50" relative="1" as="geometry">
            <mxPoint x="414" y="510" as="sourcePoint" />
            <mxPoint x="414" y="590" as="targetPoint" />
            <Array as="points">
              <mxPoint x="690" y="470" />
            </Array>
          </mxGeometry>
        </mxCell>
        <mxCell id="c-90zkIYk8aVxUDxAEu_-2" value="&lt;font style=&quot;font-size: 18px;&quot;&gt;1&lt;/font&gt;" style="ellipse;whiteSpace=wrap;html=1;aspect=fixed;fillColor=#dae8fc;strokeColor=#6c8ebf;" parent="1" vertex="1">
          <mxGeometry x="374" y="110" width="80" height="80" as="geometry" />
        </mxCell>
        <mxCell id="c-90zkIYk8aVxUDxAEu_-3" value="" style="endArrow=classic;html=1;rounded=0;exitX=0.5;exitY=1;exitDx=0;exitDy=0;entryX=0.5;entryY=0;entryDx=0;entryDy=0;" parent="1" source="c-90zkIYk8aVxUDxAEu_-2" target="c-90zkIYk8aVxUDxAEu_-4" edge="1">
          <mxGeometry width="50" height="50" relative="1" as="geometry">
            <mxPoint x="500" y="460" as="sourcePoint" />
            <mxPoint x="414" y="270" as="targetPoint" />
          </mxGeometry>
        </mxCell>
        <mxCell id="c-90zkIYk8aVxUDxAEu_-4" value="&lt;font style=&quot;font-size: 18px;&quot;&gt;2&lt;/font&gt;" style="ellipse;whiteSpace=wrap;html=1;aspect=fixed;fillColor=#dae8fc;strokeColor=#6c8ebf;" parent="1" vertex="1">
          <mxGeometry x="374" y="270" width="80" height="80" as="geometry" />
        </mxCell>
        <mxCell id="c-90zkIYk8aVxUDxAEu_-5" value="&lt;font style=&quot;font-size: 18px;&quot;&gt;3&lt;/font&gt;" style="ellipse;whiteSpace=wrap;html=1;aspect=fixed;fillColor=#f8cecc;strokeColor=#b85450;" parent="1" vertex="1">
          <mxGeometry x="374" y="430" width="80" height="80" as="geometry" />
        </mxCell>
        <mxCell id="c-90zkIYk8aVxUDxAEu_-6" value="&lt;font style=&quot;font-size: 18px;&quot;&gt;4&lt;/font&gt;" style="ellipse;whiteSpace=wrap;html=1;aspect=fixed;fillColor=#dae8fc;strokeColor=#6c8ebf;" parent="1" vertex="1">
          <mxGeometry x="650" y="740" width="80" height="80" as="geometry" />
        </mxCell>
        <mxCell id="c-90zkIYk8aVxUDxAEu_-7" value="&lt;font style=&quot;font-size: 18px;&quot;&gt;5&lt;/font&gt;" style="ellipse;whiteSpace=wrap;html=1;aspect=fixed;fillColor=#dae8fc;strokeColor=#6c8ebf;" parent="1" vertex="1">
          <mxGeometry x="374" y="740" width="80" height="80" as="geometry" />
        </mxCell>
        <mxCell id="c-90zkIYk8aVxUDxAEu_-8" value="&lt;font style=&quot;font-size: 18px;&quot;&gt;6&lt;/font&gt;" style="ellipse;whiteSpace=wrap;html=1;aspect=fixed;fillColor=#f8cecc;strokeColor=#b85450;" parent="1" vertex="1">
          <mxGeometry x="374" y="900" width="80" height="80" as="geometry" />
        </mxCell>
        <mxCell id="c-90zkIYk8aVxUDxAEu_-9" value="" style="endArrow=classic;html=1;rounded=0;exitX=0.5;exitY=1;exitDx=0;exitDy=0;entryX=0.5;entryY=0;entryDx=0;entryDy=0;" parent="1" edge="1">
          <mxGeometry width="50" height="50" relative="1" as="geometry">
            <mxPoint x="414" y="350" as="sourcePoint" />
            <mxPoint x="414" y="430" as="targetPoint" />
          </mxGeometry>
        </mxCell>
        <mxCell id="c-90zkIYk8aVxUDxAEu_-11" value="" style="endArrow=classic;html=1;rounded=0;exitX=0.5;exitY=1;exitDx=0;exitDy=0;entryX=0.5;entryY=0;entryDx=0;entryDy=0;" parent="1" target="c-90zkIYk8aVxUDxAEu_-8" edge="1">
          <mxGeometry width="50" height="50" relative="1" as="geometry">
            <mxPoint x="413" y="820" as="sourcePoint" />
            <mxPoint x="413" y="895" as="targetPoint" />
          </mxGeometry>
        </mxCell>
        <mxCell id="c-90zkIYk8aVxUDxAEu_-12" value="&lt;font style=&quot;font-size: 18px;&quot;&gt;T&lt;/font&gt;" style="text;html=1;strokeColor=none;fillColor=none;align=center;verticalAlign=middle;whiteSpace=wrap;rounded=0;" parent="1" vertex="1">
          <mxGeometry x="690" y="640" width="60" height="30" as="geometry" />
        </mxCell>
        <mxCell id="c-90zkIYk8aVxUDxAEu_-15" value="&lt;font style=&quot;font-size: 18px;&quot;&gt;7&lt;/font&gt;" style="ellipse;whiteSpace=wrap;html=1;aspect=fixed;fillColor=#dae8fc;strokeColor=#6c8ebf;" parent="1" vertex="1">
          <mxGeometry x="374" y="1060" width="80" height="80" as="geometry" />
        </mxCell>
        <mxCell id="c-90zkIYk8aVxUDxAEu_-16" value="" style="endArrow=classic;html=1;rounded=0;exitX=0.5;exitY=1;exitDx=0;exitDy=0;entryX=0.5;entryY=0;entryDx=0;entryDy=0;" parent="1" target="c-90zkIYk8aVxUDxAEu_-15" edge="1">
          <mxGeometry width="50" height="50" relative="1" as="geometry">
            <mxPoint x="413" y="980" as="sourcePoint" />
            <mxPoint x="380" y="1040" as="targetPoint" />
          </mxGeometry>
        </mxCell>
        <mxCell id="c-90zkIYk8aVxUDxAEu_-19" value="&lt;span style=&quot;font-size: 18px;&quot;&gt;8&lt;/span&gt;" style="ellipse;whiteSpace=wrap;html=1;aspect=fixed;fillColor=#dae8fc;strokeColor=#6c8ebf;" parent="1" vertex="1">
          <mxGeometry x="374" y="1220" width="80" height="80" as="geometry" />
        </mxCell>
        <mxCell id="c-90zkIYk8aVxUDxAEu_-25" value="&lt;font style=&quot;font-size: 18px;&quot;&gt;F&lt;/font&gt;" style="text;html=1;strokeColor=none;fillColor=none;align=center;verticalAlign=middle;whiteSpace=wrap;rounded=0;" parent="1" vertex="1">
          <mxGeometry x="340" y="640" width="60" height="30" as="geometry" />
        </mxCell>
        <mxCell id="c-90zkIYk8aVxUDxAEu_-27" value="" style="endArrow=classic;html=1;rounded=0;exitX=1;exitY=0.5;exitDx=0;exitDy=0;entryX=1;entryY=0.5;entryDx=0;entryDy=0;" parent="1" source="c-90zkIYk8aVxUDxAEu_-15" target="c-90zkIYk8aVxUDxAEu_-8" edge="1">
          <mxGeometry width="50" height="50" relative="1" as="geometry">
            <mxPoint x="440" y="1050" as="sourcePoint" />
            <mxPoint x="490" y="1000" as="targetPoint" />
            <Array as="points">
              <mxPoint x="560" y="1100" />
              <mxPoint x="560" y="940" />
            </Array>
          </mxGeometry>
        </mxCell>
        <mxCell id="c-90zkIYk8aVxUDxAEu_-28" value="&lt;font style=&quot;font-size: 18px;&quot;&gt;T&lt;/font&gt;" style="text;html=1;strokeColor=none;fillColor=none;align=center;verticalAlign=middle;whiteSpace=wrap;rounded=0;" parent="1" vertex="1">
          <mxGeometry x="414" y="1000" width="60" height="30" as="geometry" />
        </mxCell>
        <mxCell id="c-90zkIYk8aVxUDxAEu_-29" value="" style="endArrow=classic;html=1;rounded=0;exitX=0;exitY=0.5;exitDx=0;exitDy=0;entryX=0;entryY=0.5;entryDx=0;entryDy=0;" parent="1" source="c-90zkIYk8aVxUDxAEu_-8" target="c-90zkIYk8aVxUDxAEu_-19" edge="1">
          <mxGeometry width="50" height="50" relative="1" as="geometry">
            <mxPoint x="440" y="1150" as="sourcePoint" />
            <mxPoint x="490" y="1100" as="targetPoint" />
            <Array as="points">
              <mxPoint x="240" y="940" />
              <mxPoint x="240" y="1260" />
            </Array>
          </mxGeometry>
        </mxCell>
        <mxCell id="c-90zkIYk8aVxUDxAEu_-30" value="&lt;font style=&quot;font-size: 18px;&quot;&gt;F&lt;/font&gt;" style="text;html=1;strokeColor=none;fillColor=none;align=center;verticalAlign=middle;whiteSpace=wrap;rounded=0;" parent="1" vertex="1">
          <mxGeometry x="170" y="1060" width="60" height="30" as="geometry" />
        </mxCell>
        <mxCell id="c-90zkIYk8aVxUDxAEu_-31" value="&lt;font style=&quot;font-size: 18px;&quot;&gt;&amp;nbsp;i &amp;lt;= n&lt;/font&gt;" style="text;html=1;strokeColor=none;fillColor=none;align=center;verticalAlign=middle;whiteSpace=wrap;rounded=0;" parent="1" vertex="1">
          <mxGeometry x="560" y="1010" width="60" height="30" as="geometry" />
        </mxCell>
        <mxCell id="vq6WBkHz7BF2g62KRSDS-2" value="" style="endArrow=classic;html=1;rounded=0;exitX=0.5;exitY=1;exitDx=0;exitDy=0;entryX=0.5;entryY=0;entryDx=0;entryDy=0;" parent="1" source="c-90zkIYk8aVxUDxAEu_-5" target="c-90zkIYk8aVxUDxAEu_-7" edge="1">
          <mxGeometry width="50" height="50" relative="1" as="geometry">
            <mxPoint x="720" y="710" as="sourcePoint" />
            <mxPoint x="770" y="660" as="targetPoint" />
          </mxGeometry>
        </mxCell>
        <mxCell id="jmbMm2U_V-scjcYYqcTr-1" value="&lt;span style=&quot;font-size: 18px;&quot;&gt;9&lt;/span&gt;" style="ellipse;whiteSpace=wrap;html=1;aspect=fixed;fillColor=#dae8fc;strokeColor=#6c8ebf;" vertex="1" parent="1">
          <mxGeometry x="374" y="1380" width="80" height="80" as="geometry" />
        </mxCell>
        <mxCell id="jmbMm2U_V-scjcYYqcTr-2" value="" style="endArrow=classic;html=1;rounded=0;exitX=0.5;exitY=1;exitDx=0;exitDy=0;entryX=1;entryY=0.5;entryDx=0;entryDy=0;" edge="1" parent="1" source="c-90zkIYk8aVxUDxAEu_-6" target="jmbMm2U_V-scjcYYqcTr-1">
          <mxGeometry width="50" height="50" relative="1" as="geometry">
            <mxPoint x="640" y="1220" as="sourcePoint" />
            <mxPoint x="690" y="1170" as="targetPoint" />
            <Array as="points">
              <mxPoint x="690" y="1420" />
            </Array>
          </mxGeometry>
        </mxCell>
        <mxCell id="jmbMm2U_V-scjcYYqcTr-3" value="" style="endArrow=classic;html=1;rounded=0;exitX=0.5;exitY=1;exitDx=0;exitDy=0;entryX=0.5;entryY=0;entryDx=0;entryDy=0;" edge="1" parent="1" source="c-90zkIYk8aVxUDxAEu_-19" target="jmbMm2U_V-scjcYYqcTr-1">
          <mxGeometry width="50" height="50" relative="1" as="geometry">
            <mxPoint x="640" y="1090" as="sourcePoint" />
            <mxPoint x="690" y="1040" as="targetPoint" />
          </mxGeometry>
        </mxCell>
      </root>
    </mxGraphModel>
  </diagram>
</mxfile>
